<mxfile host="app.diagrams.net" modified="2023-01-01T16:18:44.011Z" agent="5.0 (X11)" etag="gNn1nPpFyZZRAXu1C_lF" version="20.6.2" type="github">
  <diagram id="C5RBs43oDa-KdzZeNtuy" name="Main">
    <mxGraphModel dx="782" dy="708" grid="1" gridSize="10" guides="1" tooltips="1" connect="1" arrows="1" fold="1" page="1" pageScale="1" pageWidth="827" pageHeight="1169" math="0" shadow="0">
      <root>
        <mxCell id="WIyWlLk6GJQsqaUBKTNV-0" />
        <mxCell id="WIyWlLk6GJQsqaUBKTNV-1" parent="WIyWlLk6GJQsqaUBKTNV-0" />
        <mxCell id="53pVklxJG9t8ZVB9ZSfY-29" value="MsgLogger" style="swimlane;fontStyle=1;align=center;verticalAlign=top;childLayout=stackLayout;horizontal=1;startSize=26;horizontalStack=0;resizeParent=1;resizeParentMax=0;resizeLast=0;collapsible=1;marginBottom=0;rounded=0;fillColor=none;" parent="WIyWlLk6GJQsqaUBKTNV-1" vertex="1">
          <mxGeometry x="230" y="290" width="160" height="86" as="geometry" />
        </mxCell>
        <mxCell id="53pVklxJG9t8ZVB9ZSfY-30" value="+ field: type" style="text;strokeColor=none;fillColor=none;align=left;verticalAlign=top;spacingLeft=4;spacingRight=4;overflow=hidden;rotatable=0;points=[[0,0.5],[1,0.5]];portConstraint=eastwest;rounded=0;" parent="53pVklxJG9t8ZVB9ZSfY-29" vertex="1">
          <mxGeometry y="26" width="160" height="26" as="geometry" />
        </mxCell>
        <mxCell id="53pVklxJG9t8ZVB9ZSfY-31" value="" style="line;strokeWidth=1;fillColor=none;align=left;verticalAlign=middle;spacingTop=-1;spacingLeft=3;spacingRight=3;rotatable=0;labelPosition=right;points=[];portConstraint=eastwest;strokeColor=inherit;rounded=0;" parent="53pVklxJG9t8ZVB9ZSfY-29" vertex="1">
          <mxGeometry y="52" width="160" height="8" as="geometry" />
        </mxCell>
        <mxCell id="53pVklxJG9t8ZVB9ZSfY-32" value="+ MsgLogger()" style="text;strokeColor=none;fillColor=none;align=left;verticalAlign=top;spacingLeft=4;spacingRight=4;overflow=hidden;rotatable=0;points=[[0,0.5],[1,0.5]];portConstraint=eastwest;rounded=0;" parent="53pVklxJG9t8ZVB9ZSfY-29" vertex="1">
          <mxGeometry y="60" width="160" height="26" as="geometry" />
        </mxCell>
        <mxCell id="lrhZeODzZk2-2YLw7vKb-0" value="LogStore" style="swimlane;fontStyle=3;align=center;verticalAlign=top;childLayout=stackLayout;horizontal=1;startSize=26;horizontalStack=0;resizeParent=1;resizeParentMax=0;resizeLast=0;collapsible=1;marginBottom=0;" parent="WIyWlLk6GJQsqaUBKTNV-1" vertex="1">
          <mxGeometry x="630" y="90" width="160" height="120" as="geometry" />
        </mxCell>
        <mxCell id="lrhZeODzZk2-2YLw7vKb-1" value="+ field: type" style="text;strokeColor=none;fillColor=none;align=left;verticalAlign=top;spacingLeft=4;spacingRight=4;overflow=hidden;rotatable=0;points=[[0,0.5],[1,0.5]];portConstraint=eastwest;" parent="lrhZeODzZk2-2YLw7vKb-0" vertex="1">
          <mxGeometry y="26" width="160" height="26" as="geometry" />
        </mxCell>
        <mxCell id="lrhZeODzZk2-2YLw7vKb-2" value="" style="line;strokeWidth=1;fillColor=none;align=left;verticalAlign=middle;spacingTop=-1;spacingLeft=3;spacingRight=3;rotatable=0;labelPosition=right;points=[];portConstraint=eastwest;strokeColor=inherit;" parent="lrhZeODzZk2-2YLw7vKb-0" vertex="1">
          <mxGeometry y="52" width="160" height="8" as="geometry" />
        </mxCell>
        <mxCell id="lrhZeODzZk2-2YLw7vKb-3" value="+ write(): int = 0&#xa;+ clear()&#xa;+ readNext(): char[]&#xa;&#xa;" style="text;strokeColor=none;fillColor=none;align=left;verticalAlign=top;spacingLeft=4;spacingRight=4;overflow=hidden;rotatable=0;points=[[0,0.5],[1,0.5]];portConstraint=eastwest;fontStyle=2" parent="lrhZeODzZk2-2YLw7vKb-0" vertex="1">
          <mxGeometry y="60" width="160" height="60" as="geometry" />
        </mxCell>
        <mxCell id="lrhZeODzZk2-2YLw7vKb-4" value="EepromLog" style="swimlane;fontStyle=1;align=center;verticalAlign=top;childLayout=stackLayout;horizontal=1;startSize=26;horizontalStack=0;resizeParent=1;resizeParentMax=0;resizeLast=0;collapsible=1;marginBottom=0;" parent="WIyWlLk6GJQsqaUBKTNV-1" vertex="1">
          <mxGeometry x="420" y="290" width="200" height="130" as="geometry" />
        </mxCell>
        <mxCell id="lrhZeODzZk2-2YLw7vKb-5" value="+ field: type" style="text;strokeColor=none;fillColor=none;align=left;verticalAlign=top;spacingLeft=4;spacingRight=4;overflow=hidden;rotatable=0;points=[[0,0.5],[1,0.5]];portConstraint=eastwest;" parent="lrhZeODzZk2-2YLw7vKb-4" vertex="1">
          <mxGeometry y="26" width="200" height="26" as="geometry" />
        </mxCell>
        <mxCell id="lrhZeODzZk2-2YLw7vKb-6" value="" style="line;strokeWidth=1;fillColor=none;align=left;verticalAlign=middle;spacingTop=-1;spacingLeft=3;spacingRight=3;rotatable=0;labelPosition=right;points=[];portConstraint=eastwest;strokeColor=inherit;" parent="lrhZeODzZk2-2YLw7vKb-4" vertex="1">
          <mxGeometry y="52" width="200" height="8" as="geometry" />
        </mxCell>
        <mxCell id="lrhZeODzZk2-2YLw7vKb-7" value="+ EepromLog(start, direction)&#xa;+ write(): int&#xa;+ clear()&#xa;+ readNext()&#xa;" style="text;strokeColor=none;fillColor=none;align=left;verticalAlign=top;spacingLeft=4;spacingRight=4;overflow=hidden;rotatable=0;points=[[0,0.5],[1,0.5]];portConstraint=eastwest;" parent="lrhZeODzZk2-2YLw7vKb-4" vertex="1">
          <mxGeometry y="60" width="200" height="70" as="geometry" />
        </mxCell>
        <mxCell id="lrhZeODzZk2-2YLw7vKb-13" value="SdCardLog" style="swimlane;fontStyle=1;align=center;verticalAlign=top;childLayout=stackLayout;horizontal=1;startSize=26;horizontalStack=0;resizeParent=1;resizeParentMax=0;resizeLast=0;collapsible=1;marginBottom=0;" parent="WIyWlLk6GJQsqaUBKTNV-1" vertex="1">
          <mxGeometry x="640" y="290" width="160" height="140" as="geometry" />
        </mxCell>
        <mxCell id="lrhZeODzZk2-2YLw7vKb-14" value="+ field: type" style="text;strokeColor=none;fillColor=none;align=left;verticalAlign=top;spacingLeft=4;spacingRight=4;overflow=hidden;rotatable=0;points=[[0,0.5],[1,0.5]];portConstraint=eastwest;" parent="lrhZeODzZk2-2YLw7vKb-13" vertex="1">
          <mxGeometry y="26" width="160" height="26" as="geometry" />
        </mxCell>
        <mxCell id="lrhZeODzZk2-2YLw7vKb-15" value="" style="line;strokeWidth=1;fillColor=none;align=left;verticalAlign=middle;spacingTop=-1;spacingLeft=3;spacingRight=3;rotatable=0;labelPosition=right;points=[];portConstraint=eastwest;strokeColor=inherit;" parent="lrhZeODzZk2-2YLw7vKb-13" vertex="1">
          <mxGeometry y="52" width="160" height="8" as="geometry" />
        </mxCell>
        <mxCell id="lrhZeODzZk2-2YLw7vKb-16" value="+ SdCardLog(fileName)&#xa;+ write(): int&#xa;+ clear()&#xa;+ readNext()&#xa;+ isValid(): bool" style="text;strokeColor=none;fillColor=none;align=left;verticalAlign=top;spacingLeft=4;spacingRight=4;overflow=hidden;rotatable=0;points=[[0,0.5],[1,0.5]];portConstraint=eastwest;fontStyle=0" parent="lrhZeODzZk2-2YLw7vKb-13" vertex="1">
          <mxGeometry y="60" width="160" height="80" as="geometry" />
        </mxCell>
        <mxCell id="lrhZeODzZk2-2YLw7vKb-17" value="SerialLog" style="swimlane;fontStyle=1;align=center;verticalAlign=top;childLayout=stackLayout;horizontal=1;startSize=26;horizontalStack=0;resizeParent=1;resizeParentMax=0;resizeLast=0;collapsible=1;marginBottom=0;" parent="WIyWlLk6GJQsqaUBKTNV-1" vertex="1">
          <mxGeometry x="840" y="290" width="160" height="86" as="geometry" />
        </mxCell>
        <mxCell id="lrhZeODzZk2-2YLw7vKb-18" value="+ field: type" style="text;strokeColor=none;fillColor=none;align=left;verticalAlign=top;spacingLeft=4;spacingRight=4;overflow=hidden;rotatable=0;points=[[0,0.5],[1,0.5]];portConstraint=eastwest;" parent="lrhZeODzZk2-2YLw7vKb-17" vertex="1">
          <mxGeometry y="26" width="160" height="26" as="geometry" />
        </mxCell>
        <mxCell id="lrhZeODzZk2-2YLw7vKb-19" value="" style="line;strokeWidth=1;fillColor=none;align=left;verticalAlign=middle;spacingTop=-1;spacingLeft=3;spacingRight=3;rotatable=0;labelPosition=right;points=[];portConstraint=eastwest;strokeColor=inherit;" parent="lrhZeODzZk2-2YLw7vKb-17" vertex="1">
          <mxGeometry y="52" width="160" height="8" as="geometry" />
        </mxCell>
        <mxCell id="lrhZeODzZk2-2YLw7vKb-20" value="+ write(): int" style="text;strokeColor=none;fillColor=none;align=left;verticalAlign=top;spacingLeft=4;spacingRight=4;overflow=hidden;rotatable=0;points=[[0,0.5],[1,0.5]];portConstraint=eastwest;" parent="lrhZeODzZk2-2YLw7vKb-17" vertex="1">
          <mxGeometry y="60" width="160" height="26" as="geometry" />
        </mxCell>
        <mxCell id="lrhZeODzZk2-2YLw7vKb-21" value="Inherits" style="endArrow=block;endSize=16;endFill=0;html=1;rounded=0;" parent="WIyWlLk6GJQsqaUBKTNV-1" source="lrhZeODzZk2-2YLw7vKb-4" target="lrhZeODzZk2-2YLw7vKb-0" edge="1">
          <mxGeometry width="160" relative="1" as="geometry">
            <mxPoint x="310" y="300" as="sourcePoint" />
            <mxPoint x="480" y="380" as="targetPoint" />
          </mxGeometry>
        </mxCell>
        <mxCell id="lrhZeODzZk2-2YLw7vKb-22" value="Inherits" style="endArrow=block;endSize=16;endFill=0;html=1;rounded=0;" parent="WIyWlLk6GJQsqaUBKTNV-1" source="lrhZeODzZk2-2YLw7vKb-13" target="lrhZeODzZk2-2YLw7vKb-0" edge="1">
          <mxGeometry width="160" relative="1" as="geometry">
            <mxPoint x="320" y="380" as="sourcePoint" />
            <mxPoint x="480" y="380" as="targetPoint" />
          </mxGeometry>
        </mxCell>
        <mxCell id="lrhZeODzZk2-2YLw7vKb-23" value="Inherits" style="endArrow=block;endSize=16;endFill=0;html=1;rounded=0;" parent="WIyWlLk6GJQsqaUBKTNV-1" source="lrhZeODzZk2-2YLw7vKb-17" target="lrhZeODzZk2-2YLw7vKb-0" edge="1">
          <mxGeometry width="160" relative="1" as="geometry">
            <mxPoint x="320" y="380" as="sourcePoint" />
            <mxPoint x="480" y="380" as="targetPoint" />
          </mxGeometry>
        </mxCell>
        <mxCell id="lrhZeODzZk2-2YLw7vKb-24" value="Logger" style="swimlane;fontStyle=3;align=center;verticalAlign=top;childLayout=stackLayout;horizontal=1;startSize=26;horizontalStack=0;resizeParent=1;resizeParentMax=0;resizeLast=0;collapsible=1;marginBottom=0;" parent="WIyWlLk6GJQsqaUBKTNV-1" vertex="1">
          <mxGeometry x="120" y="90" width="160" height="120" as="geometry" />
        </mxCell>
        <mxCell id="lrhZeODzZk2-2YLw7vKb-26" value="" style="line;strokeWidth=1;fillColor=none;align=left;verticalAlign=middle;spacingTop=-1;spacingLeft=3;spacingRight=3;rotatable=0;labelPosition=right;points=[];portConstraint=eastwest;strokeColor=inherit;" parent="lrhZeODzZk2-2YLw7vKb-24" vertex="1">
          <mxGeometry y="26" width="160" height="54" as="geometry" />
        </mxCell>
        <mxCell id="lrhZeODzZk2-2YLw7vKb-27" value="- getLogStore() = 0&#xa;+ write()&#xa;" style="text;strokeColor=none;fillColor=none;align=left;verticalAlign=top;spacingLeft=4;spacingRight=4;overflow=hidden;rotatable=0;points=[[0,0.5],[1,0.5]];portConstraint=eastwest;fontStyle=2" parent="lrhZeODzZk2-2YLw7vKb-24" vertex="1">
          <mxGeometry y="80" width="160" height="40" as="geometry" />
        </mxCell>
        <mxCell id="lrhZeODzZk2-2YLw7vKb-28" value="WdrLogger" style="swimlane;fontStyle=1;align=center;verticalAlign=top;childLayout=stackLayout;horizontal=1;startSize=26;horizontalStack=0;resizeParent=1;resizeParentMax=0;resizeLast=0;collapsible=1;marginBottom=0;" parent="WIyWlLk6GJQsqaUBKTNV-1" vertex="1">
          <mxGeometry x="20" y="290" width="160" height="86" as="geometry" />
        </mxCell>
        <mxCell id="lrhZeODzZk2-2YLw7vKb-29" value="+ field: type" style="text;strokeColor=none;fillColor=none;align=left;verticalAlign=top;spacingLeft=4;spacingRight=4;overflow=hidden;rotatable=0;points=[[0,0.5],[1,0.5]];portConstraint=eastwest;" parent="lrhZeODzZk2-2YLw7vKb-28" vertex="1">
          <mxGeometry y="26" width="160" height="26" as="geometry" />
        </mxCell>
        <mxCell id="lrhZeODzZk2-2YLw7vKb-30" value="" style="line;strokeWidth=1;fillColor=none;align=left;verticalAlign=middle;spacingTop=-1;spacingLeft=3;spacingRight=3;rotatable=0;labelPosition=right;points=[];portConstraint=eastwest;strokeColor=inherit;" parent="lrhZeODzZk2-2YLw7vKb-28" vertex="1">
          <mxGeometry y="52" width="160" height="8" as="geometry" />
        </mxCell>
        <mxCell id="lrhZeODzZk2-2YLw7vKb-31" value="+ WdrLogger()" style="text;strokeColor=none;fillColor=none;align=left;verticalAlign=top;spacingLeft=4;spacingRight=4;overflow=hidden;rotatable=0;points=[[0,0.5],[1,0.5]];portConstraint=eastwest;" parent="lrhZeODzZk2-2YLw7vKb-28" vertex="1">
          <mxGeometry y="60" width="160" height="26" as="geometry" />
        </mxCell>
        <mxCell id="lrhZeODzZk2-2YLw7vKb-32" value="Inherits" style="endArrow=block;endSize=16;endFill=0;html=1;rounded=0;" parent="WIyWlLk6GJQsqaUBKTNV-1" source="53pVklxJG9t8ZVB9ZSfY-29" target="lrhZeODzZk2-2YLw7vKb-24" edge="1">
          <mxGeometry width="160" relative="1" as="geometry">
            <mxPoint x="530" y="300" as="sourcePoint" />
            <mxPoint x="680" y="186" as="targetPoint" />
          </mxGeometry>
        </mxCell>
        <mxCell id="lrhZeODzZk2-2YLw7vKb-33" value="Inherits" style="endArrow=block;endSize=16;endFill=0;html=1;rounded=0;" parent="WIyWlLk6GJQsqaUBKTNV-1" source="lrhZeODzZk2-2YLw7vKb-28" target="lrhZeODzZk2-2YLw7vKb-24" edge="1">
          <mxGeometry width="160" relative="1" as="geometry">
            <mxPoint x="320" y="300" as="sourcePoint" />
            <mxPoint x="170" y="180" as="targetPoint" />
          </mxGeometry>
        </mxCell>
        <mxCell id="lrhZeODzZk2-2YLw7vKb-34" value="LogStoreMgr" style="swimlane;fontStyle=1;align=center;verticalAlign=top;childLayout=stackLayout;horizontal=1;startSize=26;horizontalStack=0;resizeParent=1;resizeParentMax=0;resizeLast=0;collapsible=1;marginBottom=0;" parent="WIyWlLk6GJQsqaUBKTNV-1" vertex="1">
          <mxGeometry x="334" y="510" width="216" height="110" as="geometry" />
        </mxCell>
        <mxCell id="lrhZeODzZk2-2YLw7vKb-35" value="+ loggerType: enum" style="text;strokeColor=none;fillColor=none;align=left;verticalAlign=top;spacingLeft=4;spacingRight=4;overflow=hidden;rotatable=0;points=[[0,0.5],[1,0.5]];portConstraint=eastwest;" parent="lrhZeODzZk2-2YLw7vKb-34" vertex="1">
          <mxGeometry y="26" width="216" height="26" as="geometry" />
        </mxCell>
        <mxCell id="lrhZeODzZk2-2YLw7vKb-36" value="" style="line;strokeWidth=1;fillColor=none;align=left;verticalAlign=middle;spacingTop=-1;spacingLeft=3;spacingRight=3;rotatable=0;labelPosition=right;points=[];portConstraint=eastwest;strokeColor=inherit;" parent="lrhZeODzZk2-2YLw7vKb-34" vertex="1">
          <mxGeometry y="52" width="216" height="8" as="geometry" />
        </mxCell>
        <mxCell id="lrhZeODzZk2-2YLw7vKb-37" value="+ LogStoreMgr(loggerType)&#xa;+ getLogStore()&#xa;+ updateListener()&#xa;" style="text;strokeColor=none;fillColor=none;align=left;verticalAlign=top;spacingLeft=4;spacingRight=4;overflow=hidden;rotatable=0;points=[[0,0.5],[1,0.5]];portConstraint=eastwest;" parent="lrhZeODzZk2-2YLw7vKb-34" vertex="1">
          <mxGeometry y="60" width="216" height="50" as="geometry" />
        </mxCell>
        <mxCell id="lrhZeODzZk2-2YLw7vKb-42" value="1" style="endArrow=open;html=1;endSize=12;startArrow=diamondThin;startSize=14;startFill=1;edgeStyle=orthogonalEdgeStyle;align=left;verticalAlign=bottom;rounded=0;" parent="WIyWlLk6GJQsqaUBKTNV-1" source="53pVklxJG9t8ZVB9ZSfY-29" target="lrhZeODzZk2-2YLw7vKb-34" edge="1">
          <mxGeometry x="-1" y="3" relative="1" as="geometry">
            <mxPoint x="30" y="480" as="sourcePoint" />
            <mxPoint x="70" y="680" as="targetPoint" />
            <Array as="points">
              <mxPoint x="310" y="530" />
            </Array>
          </mxGeometry>
        </mxCell>
        <mxCell id="lrhZeODzZk2-2YLw7vKb-44" value="Use" style="endArrow=open;endSize=12;dashed=1;html=1;rounded=0;edgeStyle=orthogonalEdgeStyle;" parent="WIyWlLk6GJQsqaUBKTNV-1" source="lrhZeODzZk2-2YLw7vKb-24" target="lrhZeODzZk2-2YLw7vKb-34" edge="1">
          <mxGeometry width="160" relative="1" as="geometry">
            <mxPoint x="104.37272727272716" y="560" as="sourcePoint" />
            <mxPoint x="295.6272727272726" y="694.0000000000002" as="targetPoint" />
            <Array as="points">
              <mxPoint x="400" y="170" />
            </Array>
          </mxGeometry>
        </mxCell>
        <mxCell id="lrhZeODzZk2-2YLw7vKb-49" value="1" style="endArrow=open;html=1;endSize=12;startArrow=diamondThin;startSize=14;startFill=1;edgeStyle=orthogonalEdgeStyle;align=left;verticalAlign=bottom;rounded=0;exitX=0.651;exitY=0.005;exitDx=0;exitDy=0;exitPerimeter=0;" parent="WIyWlLk6GJQsqaUBKTNV-1" source="lrhZeODzZk2-2YLw7vKb-34" target="lrhZeODzZk2-2YLw7vKb-4" edge="1">
          <mxGeometry x="-1" y="3" relative="1" as="geometry">
            <mxPoint x="650" y="520" as="sourcePoint" />
            <mxPoint x="811.9999999999998" y="903.0000000000002" as="targetPoint" />
          </mxGeometry>
        </mxCell>
        <mxCell id="lrhZeODzZk2-2YLw7vKb-50" value="1" style="endArrow=open;html=1;endSize=12;startArrow=diamondThin;startSize=14;startFill=1;edgeStyle=orthogonalEdgeStyle;align=left;verticalAlign=bottom;rounded=0;" parent="WIyWlLk6GJQsqaUBKTNV-1" source="lrhZeODzZk2-2YLw7vKb-34" target="lrhZeODzZk2-2YLw7vKb-13" edge="1">
          <mxGeometry x="-1" y="3" relative="1" as="geometry">
            <mxPoint x="739.9999999999998" y="645.0000000000002" as="sourcePoint" />
            <mxPoint x="818" y="525" as="targetPoint" />
            <Array as="points">
              <mxPoint x="720" y="540" />
            </Array>
          </mxGeometry>
        </mxCell>
        <mxCell id="lrhZeODzZk2-2YLw7vKb-51" value="1" style="endArrow=open;html=1;endSize=12;startArrow=diamondThin;startSize=14;startFill=1;edgeStyle=orthogonalEdgeStyle;align=left;verticalAlign=bottom;rounded=0;" parent="WIyWlLk6GJQsqaUBKTNV-1" source="lrhZeODzZk2-2YLw7vKb-34" target="lrhZeODzZk2-2YLw7vKb-17" edge="1">
          <mxGeometry x="-1" y="3" relative="1" as="geometry">
            <mxPoint x="657" y="613" as="sourcePoint" />
            <mxPoint x="827" y="470" as="targetPoint" />
          </mxGeometry>
        </mxCell>
        <mxCell id="lrhZeODzZk2-2YLw7vKb-56" value="SdCardListener" style="swimlane;fontStyle=3;align=center;verticalAlign=top;childLayout=stackLayout;horizontal=1;startSize=26;horizontalStack=0;resizeParent=1;resizeParentMax=0;resizeLast=0;collapsible=1;marginBottom=0;" parent="WIyWlLk6GJQsqaUBKTNV-1" vertex="1">
          <mxGeometry x="600" y="750" width="160" height="100" as="geometry" />
        </mxCell>
        <mxCell id="lrhZeODzZk2-2YLw7vKb-57" value="+ field: type" style="text;strokeColor=none;fillColor=none;align=left;verticalAlign=top;spacingLeft=4;spacingRight=4;overflow=hidden;rotatable=0;points=[[0,0.5],[1,0.5]];portConstraint=eastwest;" parent="lrhZeODzZk2-2YLw7vKb-56" vertex="1">
          <mxGeometry y="26" width="160" height="26" as="geometry" />
        </mxCell>
        <mxCell id="lrhZeODzZk2-2YLw7vKb-58" value="" style="line;strokeWidth=1;fillColor=none;align=left;verticalAlign=middle;spacingTop=-1;spacingLeft=3;spacingRight=3;rotatable=0;labelPosition=right;points=[];portConstraint=eastwest;strokeColor=inherit;" parent="lrhZeODzZk2-2YLw7vKb-56" vertex="1">
          <mxGeometry y="52" width="160" height="8" as="geometry" />
        </mxCell>
        <mxCell id="lrhZeODzZk2-2YLw7vKb-59" value="+ sdCardListener()&#xa;+ updateListener()&#xa;" style="text;strokeColor=none;fillColor=none;align=left;verticalAlign=top;spacingLeft=4;spacingRight=4;overflow=hidden;rotatable=0;points=[[0,0.5],[1,0.5]];portConstraint=eastwest;fontStyle=2" parent="lrhZeODzZk2-2YLw7vKb-56" vertex="1">
          <mxGeometry y="60" width="160" height="40" as="geometry" />
        </mxCell>
        <mxCell id="lrhZeODzZk2-2YLw7vKb-64" value="Inherits" style="endArrow=block;endSize=16;endFill=0;html=1;rounded=0;" parent="WIyWlLk6GJQsqaUBKTNV-1" source="lrhZeODzZk2-2YLw7vKb-34" target="lrhZeODzZk2-2YLw7vKb-56" edge="1">
          <mxGeometry width="160" relative="1" as="geometry">
            <mxPoint x="488.0830054644811" y="860" as="sourcePoint" />
            <mxPoint x="439.99557377049194" y="780" as="targetPoint" />
          </mxGeometry>
        </mxCell>
        <mxCell id="lrhZeODzZk2-2YLw7vKb-65" value="SdCardState" style="swimlane;fontStyle=1;align=center;verticalAlign=top;childLayout=stackLayout;horizontal=1;startSize=26;horizontalStack=0;resizeParent=1;resizeParentMax=0;resizeLast=0;collapsible=1;marginBottom=0;" parent="WIyWlLk6GJQsqaUBKTNV-1" vertex="1">
          <mxGeometry x="362" y="730" width="160" height="140" as="geometry" />
        </mxCell>
        <mxCell id="lrhZeODzZk2-2YLw7vKb-66" value="+ field: type" style="text;strokeColor=none;fillColor=none;align=left;verticalAlign=top;spacingLeft=4;spacingRight=4;overflow=hidden;rotatable=0;points=[[0,0.5],[1,0.5]];portConstraint=eastwest;" parent="lrhZeODzZk2-2YLw7vKb-65" vertex="1">
          <mxGeometry y="26" width="160" height="26" as="geometry" />
        </mxCell>
        <mxCell id="lrhZeODzZk2-2YLw7vKb-67" value="" style="line;strokeWidth=1;fillColor=none;align=left;verticalAlign=middle;spacingTop=-1;spacingLeft=3;spacingRight=3;rotatable=0;labelPosition=right;points=[];portConstraint=eastwest;strokeColor=inherit;" parent="lrhZeODzZk2-2YLw7vKb-65" vertex="1">
          <mxGeometry y="52" width="160" height="8" as="geometry" />
        </mxCell>
        <mxCell id="lrhZeODzZk2-2YLw7vKb-68" value="+ attach()&#xa;+ detach()&#xa;+ notify()&#xa;+ getState()&#xa;+ setState()&#xa;" style="text;strokeColor=none;fillColor=none;align=left;verticalAlign=top;spacingLeft=4;spacingRight=4;overflow=hidden;rotatable=0;points=[[0,0.5],[1,0.5]];portConstraint=eastwest;" parent="lrhZeODzZk2-2YLw7vKb-65" vertex="1">
          <mxGeometry y="60" width="160" height="80" as="geometry" />
        </mxCell>
        <mxCell id="lrhZeODzZk2-2YLw7vKb-69" value="listeners" style="endArrow=block;endFill=1;html=1;edgeStyle=orthogonalEdgeStyle;align=left;verticalAlign=top;rounded=0;" parent="WIyWlLk6GJQsqaUBKTNV-1" source="lrhZeODzZk2-2YLw7vKb-65" target="lrhZeODzZk2-2YLw7vKb-56" edge="1">
          <mxGeometry x="-1" relative="1" as="geometry">
            <mxPoint x="220" y="780" as="sourcePoint" />
            <mxPoint x="380" y="780" as="targetPoint" />
          </mxGeometry>
        </mxCell>
        <mxCell id="lrhZeODzZk2-2YLw7vKb-70" value="1" style="edgeLabel;resizable=0;html=1;align=left;verticalAlign=bottom;" parent="lrhZeODzZk2-2YLw7vKb-69" connectable="0" vertex="1">
          <mxGeometry x="-1" relative="1" as="geometry" />
        </mxCell>
        <mxCell id="lrhZeODzZk2-2YLw7vKb-71" value="subject" style="endArrow=block;endFill=1;html=1;edgeStyle=orthogonalEdgeStyle;align=left;verticalAlign=top;rounded=0;" parent="WIyWlLk6GJQsqaUBKTNV-1" source="lrhZeODzZk2-2YLw7vKb-34" target="lrhZeODzZk2-2YLw7vKb-65" edge="1">
          <mxGeometry x="-1" relative="1" as="geometry">
            <mxPoint x="150" y="760" as="sourcePoint" />
            <mxPoint x="310" y="760" as="targetPoint" />
          </mxGeometry>
        </mxCell>
        <mxCell id="lrhZeODzZk2-2YLw7vKb-72" value="1" style="edgeLabel;resizable=0;html=1;align=left;verticalAlign=bottom;" parent="lrhZeODzZk2-2YLw7vKb-71" connectable="0" vertex="1">
          <mxGeometry x="-1" relative="1" as="geometry" />
        </mxCell>
        <mxCell id="lrhZeODzZk2-2YLw7vKb-73" value="PersistentParameters" style="swimlane;fontStyle=1;align=center;verticalAlign=top;childLayout=stackLayout;horizontal=1;startSize=26;horizontalStack=0;resizeParent=1;resizeParentMax=0;resizeLast=0;collapsible=1;marginBottom=0;" parent="WIyWlLk6GJQsqaUBKTNV-1" vertex="1">
          <mxGeometry x="840" y="757" width="160" height="86" as="geometry" />
        </mxCell>
        <mxCell id="lrhZeODzZk2-2YLw7vKb-74" value="+ field: type" style="text;strokeColor=none;fillColor=none;align=left;verticalAlign=top;spacingLeft=4;spacingRight=4;overflow=hidden;rotatable=0;points=[[0,0.5],[1,0.5]];portConstraint=eastwest;" parent="lrhZeODzZk2-2YLw7vKb-73" vertex="1">
          <mxGeometry y="26" width="160" height="26" as="geometry" />
        </mxCell>
        <mxCell id="lrhZeODzZk2-2YLw7vKb-75" value="" style="line;strokeWidth=1;fillColor=none;align=left;verticalAlign=middle;spacingTop=-1;spacingLeft=3;spacingRight=3;rotatable=0;labelPosition=right;points=[];portConstraint=eastwest;strokeColor=inherit;" parent="lrhZeODzZk2-2YLw7vKb-73" vertex="1">
          <mxGeometry y="52" width="160" height="8" as="geometry" />
        </mxCell>
        <mxCell id="lrhZeODzZk2-2YLw7vKb-76" value="+ method(type): type" style="text;strokeColor=none;fillColor=none;align=left;verticalAlign=top;spacingLeft=4;spacingRight=4;overflow=hidden;rotatable=0;points=[[0,0.5],[1,0.5]];portConstraint=eastwest;" parent="lrhZeODzZk2-2YLw7vKb-73" vertex="1">
          <mxGeometry y="60" width="160" height="26" as="geometry" />
        </mxCell>
        <mxCell id="lrhZeODzZk2-2YLw7vKb-77" value="Inherits" style="endArrow=block;endSize=16;endFill=0;html=1;rounded=0;" parent="WIyWlLk6GJQsqaUBKTNV-1" source="lrhZeODzZk2-2YLw7vKb-73" target="lrhZeODzZk2-2YLw7vKb-56" edge="1">
          <mxGeometry width="160" relative="1" as="geometry">
            <mxPoint x="1040.0032258064516" y="580.0000000000002" as="sourcePoint" />
            <mxPoint x="1113.5516129032253" y="629.9999999999998" as="targetPoint" />
          </mxGeometry>
        </mxCell>
        <mxCell id="lrhZeODzZk2-2YLw7vKb-78" value="subject" style="endArrow=block;endFill=1;html=1;edgeStyle=orthogonalEdgeStyle;align=left;verticalAlign=top;rounded=0;" parent="WIyWlLk6GJQsqaUBKTNV-1" source="lrhZeODzZk2-2YLw7vKb-73" target="lrhZeODzZk2-2YLw7vKb-65" edge="1">
          <mxGeometry x="-1" relative="1" as="geometry">
            <mxPoint x="934.0000000000002" y="810.0000000000002" as="sourcePoint" />
            <mxPoint x="986" y="1019.9999999999998" as="targetPoint" />
            <Array as="points">
              <mxPoint x="960" y="900" />
              <mxPoint x="442" y="900" />
            </Array>
          </mxGeometry>
        </mxCell>
        <mxCell id="lrhZeODzZk2-2YLw7vKb-79" value="1" style="edgeLabel;resizable=0;html=1;align=left;verticalAlign=bottom;" parent="lrhZeODzZk2-2YLw7vKb-78" connectable="0" vertex="1">
          <mxGeometry x="-1" relative="1" as="geometry" />
        </mxCell>
        <mxCell id="lrhZeODzZk2-2YLw7vKb-80" value="Use" style="endArrow=open;endSize=12;dashed=1;html=1;rounded=0;" parent="WIyWlLk6GJQsqaUBKTNV-1" source="lrhZeODzZk2-2YLw7vKb-24" target="lrhZeODzZk2-2YLw7vKb-0" edge="1">
          <mxGeometry width="160" relative="1" as="geometry">
            <mxPoint x="540" y="530" as="sourcePoint" />
            <mxPoint x="700" y="530" as="targetPoint" />
          </mxGeometry>
        </mxCell>
        <mxCell id="lrhZeODzZk2-2YLw7vKb-81" value="EepromDataIf" style="swimlane;fontStyle=1;align=center;verticalAlign=top;childLayout=stackLayout;horizontal=1;startSize=26;horizontalStack=0;resizeParent=1;resizeParentMax=0;resizeLast=0;collapsible=1;marginBottom=0;" parent="WIyWlLk6GJQsqaUBKTNV-1" vertex="1">
          <mxGeometry x="640" y="610" width="160" height="86" as="geometry" />
        </mxCell>
        <mxCell id="lrhZeODzZk2-2YLw7vKb-82" value="+ field: type" style="text;strokeColor=none;fillColor=none;align=left;verticalAlign=top;spacingLeft=4;spacingRight=4;overflow=hidden;rotatable=0;points=[[0,0.5],[1,0.5]];portConstraint=eastwest;" parent="lrhZeODzZk2-2YLw7vKb-81" vertex="1">
          <mxGeometry y="26" width="160" height="26" as="geometry" />
        </mxCell>
        <mxCell id="lrhZeODzZk2-2YLw7vKb-83" value="" style="line;strokeWidth=1;fillColor=none;align=left;verticalAlign=middle;spacingTop=-1;spacingLeft=3;spacingRight=3;rotatable=0;labelPosition=right;points=[];portConstraint=eastwest;strokeColor=inherit;" parent="lrhZeODzZk2-2YLw7vKb-81" vertex="1">
          <mxGeometry y="52" width="160" height="8" as="geometry" />
        </mxCell>
        <mxCell id="lrhZeODzZk2-2YLw7vKb-84" value="+ method(type): type" style="text;strokeColor=none;fillColor=none;align=left;verticalAlign=top;spacingLeft=4;spacingRight=4;overflow=hidden;rotatable=0;points=[[0,0.5],[1,0.5]];portConstraint=eastwest;" parent="lrhZeODzZk2-2YLw7vKb-81" vertex="1">
          <mxGeometry y="60" width="160" height="26" as="geometry" />
        </mxCell>
        <mxCell id="lrhZeODzZk2-2YLw7vKb-85" value="SdCardDataIf" style="swimlane;fontStyle=1;align=center;verticalAlign=top;childLayout=stackLayout;horizontal=1;startSize=26;horizontalStack=0;resizeParent=1;resizeParentMax=0;resizeLast=0;collapsible=1;marginBottom=0;" parent="WIyWlLk6GJQsqaUBKTNV-1" vertex="1">
          <mxGeometry x="840" y="610" width="160" height="86" as="geometry" />
        </mxCell>
        <mxCell id="lrhZeODzZk2-2YLw7vKb-86" value="+ field: type" style="text;strokeColor=none;fillColor=none;align=left;verticalAlign=top;spacingLeft=4;spacingRight=4;overflow=hidden;rotatable=0;points=[[0,0.5],[1,0.5]];portConstraint=eastwest;" parent="lrhZeODzZk2-2YLw7vKb-85" vertex="1">
          <mxGeometry y="26" width="160" height="26" as="geometry" />
        </mxCell>
        <mxCell id="lrhZeODzZk2-2YLw7vKb-87" value="" style="line;strokeWidth=1;fillColor=none;align=left;verticalAlign=middle;spacingTop=-1;spacingLeft=3;spacingRight=3;rotatable=0;labelPosition=right;points=[];portConstraint=eastwest;strokeColor=inherit;" parent="lrhZeODzZk2-2YLw7vKb-85" vertex="1">
          <mxGeometry y="52" width="160" height="8" as="geometry" />
        </mxCell>
        <mxCell id="lrhZeODzZk2-2YLw7vKb-88" value="+ method(type): type" style="text;strokeColor=none;fillColor=none;align=left;verticalAlign=top;spacingLeft=4;spacingRight=4;overflow=hidden;rotatable=0;points=[[0,0.5],[1,0.5]];portConstraint=eastwest;" parent="lrhZeODzZk2-2YLw7vKb-85" vertex="1">
          <mxGeometry y="60" width="160" height="26" as="geometry" />
        </mxCell>
        <mxCell id="lrhZeODzZk2-2YLw7vKb-89" value="Use" style="endArrow=open;endSize=12;dashed=1;html=1;rounded=0;exitX=0.794;exitY=1.047;exitDx=0;exitDy=0;exitPerimeter=0;" parent="WIyWlLk6GJQsqaUBKTNV-1" source="lrhZeODzZk2-2YLw7vKb-7" target="lrhZeODzZk2-2YLw7vKb-81" edge="1">
          <mxGeometry width="160" relative="1" as="geometry">
            <mxPoint x="1169.999152542373" y="170" as="sourcePoint" />
            <mxPoint x="1229.05" y="304.0000000000002" as="targetPoint" />
          </mxGeometry>
        </mxCell>
        <mxCell id="lrhZeODzZk2-2YLw7vKb-90" value="Use" style="endArrow=open;endSize=12;dashed=1;html=1;rounded=0;" parent="WIyWlLk6GJQsqaUBKTNV-1" source="lrhZeODzZk2-2YLw7vKb-73" target="lrhZeODzZk2-2YLw7vKb-81" edge="1">
          <mxGeometry width="160" relative="1" as="geometry">
            <mxPoint x="980" y="909.9989655172413" as="sourcePoint" />
            <mxPoint x="1380" y="998.2748275862067" as="targetPoint" />
          </mxGeometry>
        </mxCell>
        <mxCell id="lrhZeODzZk2-2YLw7vKb-91" value="Use" style="endArrow=open;endSize=12;dashed=1;html=1;rounded=0;" parent="WIyWlLk6GJQsqaUBKTNV-1" source="lrhZeODzZk2-2YLw7vKb-73" target="lrhZeODzZk2-2YLw7vKb-85" edge="1">
          <mxGeometry width="160" relative="1" as="geometry">
            <mxPoint x="996.1739130434785" y="679.9999999999998" as="sourcePoint" />
            <mxPoint x="1083.826086956522" y="536" as="targetPoint" />
          </mxGeometry>
        </mxCell>
        <mxCell id="lrhZeODzZk2-2YLw7vKb-92" value="Use" style="endArrow=open;endSize=12;dashed=1;html=1;rounded=0;" parent="WIyWlLk6GJQsqaUBKTNV-1" source="lrhZeODzZk2-2YLw7vKb-13" target="lrhZeODzZk2-2YLw7vKb-85" edge="1">
          <mxGeometry width="160" relative="1" as="geometry">
            <mxPoint x="996.1739130434785" y="679.9999999999998" as="sourcePoint" />
            <mxPoint x="1083.826086956522" y="536" as="targetPoint" />
          </mxGeometry>
        </mxCell>
        <mxCell id="32qHAH4YdG01nu6YSYQC-0" value="1" style="endArrow=open;html=1;endSize=12;startArrow=diamondThin;startSize=14;startFill=1;edgeStyle=orthogonalEdgeStyle;align=left;verticalAlign=bottom;rounded=0;" edge="1" parent="WIyWlLk6GJQsqaUBKTNV-1" source="lrhZeODzZk2-2YLw7vKb-28" target="lrhZeODzZk2-2YLw7vKb-34">
          <mxGeometry x="-1" y="3" relative="1" as="geometry">
            <mxPoint x="50" y="530" as="sourcePoint" />
            <mxPoint x="210" y="530" as="targetPoint" />
            <Array as="points">
              <mxPoint x="100" y="565" />
            </Array>
          </mxGeometry>
        </mxCell>
        <mxCell id="32qHAH4YdG01nu6YSYQC-1" value="Loggable" style="swimlane;fontStyle=1;align=center;verticalAlign=top;childLayout=stackLayout;horizontal=1;startSize=26;horizontalStack=0;resizeParent=1;resizeParentMax=0;resizeLast=0;collapsible=1;marginBottom=0;" vertex="1" parent="WIyWlLk6GJQsqaUBKTNV-1">
          <mxGeometry x="70" y="590" width="160" height="100" as="geometry" />
        </mxCell>
        <mxCell id="32qHAH4YdG01nu6YSYQC-2" value="+ field: type" style="text;strokeColor=none;fillColor=none;align=left;verticalAlign=top;spacingLeft=4;spacingRight=4;overflow=hidden;rotatable=0;points=[[0,0.5],[1,0.5]];portConstraint=eastwest;" vertex="1" parent="32qHAH4YdG01nu6YSYQC-1">
          <mxGeometry y="26" width="160" height="26" as="geometry" />
        </mxCell>
        <mxCell id="32qHAH4YdG01nu6YSYQC-3" value="" style="line;strokeWidth=1;fillColor=none;align=left;verticalAlign=middle;spacingTop=-1;spacingLeft=3;spacingRight=3;rotatable=0;labelPosition=right;points=[];portConstraint=eastwest;strokeColor=inherit;" vertex="1" parent="32qHAH4YdG01nu6YSYQC-1">
          <mxGeometry y="52" width="160" height="8" as="geometry" />
        </mxCell>
        <mxCell id="32qHAH4YdG01nu6YSYQC-4" value="+ getBlob(): void* = 0&#xa;+ getString(): char* = 0&#xa;" style="text;strokeColor=none;fillColor=none;align=left;verticalAlign=top;spacingLeft=4;spacingRight=4;overflow=hidden;rotatable=0;points=[[0,0.5],[1,0.5]];portConstraint=eastwest;fontStyle=2" vertex="1" parent="32qHAH4YdG01nu6YSYQC-1">
          <mxGeometry y="60" width="160" height="40" as="geometry" />
        </mxCell>
        <mxCell id="32qHAH4YdG01nu6YSYQC-5" value="Wdr" style="swimlane;fontStyle=1;align=center;verticalAlign=top;childLayout=stackLayout;horizontal=1;startSize=26;horizontalStack=0;resizeParent=1;resizeParentMax=0;resizeLast=0;collapsible=1;marginBottom=0;" vertex="1" parent="WIyWlLk6GJQsqaUBKTNV-1">
          <mxGeometry x="10" y="784" width="160" height="86" as="geometry" />
        </mxCell>
        <mxCell id="32qHAH4YdG01nu6YSYQC-6" value="+ field: type" style="text;strokeColor=none;fillColor=none;align=left;verticalAlign=top;spacingLeft=4;spacingRight=4;overflow=hidden;rotatable=0;points=[[0,0.5],[1,0.5]];portConstraint=eastwest;" vertex="1" parent="32qHAH4YdG01nu6YSYQC-5">
          <mxGeometry y="26" width="160" height="26" as="geometry" />
        </mxCell>
        <mxCell id="32qHAH4YdG01nu6YSYQC-7" value="" style="line;strokeWidth=1;fillColor=none;align=left;verticalAlign=middle;spacingTop=-1;spacingLeft=3;spacingRight=3;rotatable=0;labelPosition=right;points=[];portConstraint=eastwest;strokeColor=inherit;" vertex="1" parent="32qHAH4YdG01nu6YSYQC-5">
          <mxGeometry y="52" width="160" height="8" as="geometry" />
        </mxCell>
        <mxCell id="32qHAH4YdG01nu6YSYQC-8" value="+ method(type): type" style="text;strokeColor=none;fillColor=none;align=left;verticalAlign=top;spacingLeft=4;spacingRight=4;overflow=hidden;rotatable=0;points=[[0,0.5],[1,0.5]];portConstraint=eastwest;" vertex="1" parent="32qHAH4YdG01nu6YSYQC-5">
          <mxGeometry y="60" width="160" height="26" as="geometry" />
        </mxCell>
        <mxCell id="32qHAH4YdG01nu6YSYQC-9" value="Msg" style="swimlane;fontStyle=1;align=center;verticalAlign=top;childLayout=stackLayout;horizontal=1;startSize=26;horizontalStack=0;resizeParent=1;resizeParentMax=0;resizeLast=0;collapsible=1;marginBottom=0;" vertex="1" parent="WIyWlLk6GJQsqaUBKTNV-1">
          <mxGeometry x="180" y="784" width="160" height="86" as="geometry" />
        </mxCell>
        <mxCell id="32qHAH4YdG01nu6YSYQC-10" value="+ field: type" style="text;strokeColor=none;fillColor=none;align=left;verticalAlign=top;spacingLeft=4;spacingRight=4;overflow=hidden;rotatable=0;points=[[0,0.5],[1,0.5]];portConstraint=eastwest;" vertex="1" parent="32qHAH4YdG01nu6YSYQC-9">
          <mxGeometry y="26" width="160" height="26" as="geometry" />
        </mxCell>
        <mxCell id="32qHAH4YdG01nu6YSYQC-11" value="" style="line;strokeWidth=1;fillColor=none;align=left;verticalAlign=middle;spacingTop=-1;spacingLeft=3;spacingRight=3;rotatable=0;labelPosition=right;points=[];portConstraint=eastwest;strokeColor=inherit;" vertex="1" parent="32qHAH4YdG01nu6YSYQC-9">
          <mxGeometry y="52" width="160" height="8" as="geometry" />
        </mxCell>
        <mxCell id="32qHAH4YdG01nu6YSYQC-12" value="+ method(type): type" style="text;strokeColor=none;fillColor=none;align=left;verticalAlign=top;spacingLeft=4;spacingRight=4;overflow=hidden;rotatable=0;points=[[0,0.5],[1,0.5]];portConstraint=eastwest;" vertex="1" parent="32qHAH4YdG01nu6YSYQC-9">
          <mxGeometry y="60" width="160" height="26" as="geometry" />
        </mxCell>
        <mxCell id="32qHAH4YdG01nu6YSYQC-13" value="Inherits" style="endArrow=block;endSize=16;endFill=0;html=1;rounded=0;" edge="1" parent="WIyWlLk6GJQsqaUBKTNV-1" source="32qHAH4YdG01nu6YSYQC-5" target="32qHAH4YdG01nu6YSYQC-1">
          <mxGeometry width="160" relative="1" as="geometry">
            <mxPoint x="133.49726775956287" y="300" as="sourcePoint" />
            <mxPoint x="177.21311475409834" y="220" as="targetPoint" />
          </mxGeometry>
        </mxCell>
        <mxCell id="32qHAH4YdG01nu6YSYQC-14" value="Inherits" style="endArrow=block;endSize=16;endFill=0;html=1;rounded=0;" edge="1" parent="WIyWlLk6GJQsqaUBKTNV-1" source="32qHAH4YdG01nu6YSYQC-9" target="32qHAH4YdG01nu6YSYQC-1">
          <mxGeometry width="160" relative="1" as="geometry">
            <mxPoint x="118.42857142857144" y="740" as="sourcePoint" />
            <mxPoint x="141.57142857142856" y="686" as="targetPoint" />
          </mxGeometry>
        </mxCell>
      </root>
    </mxGraphModel>
  </diagram>
</mxfile>
